<?xml version="1.0" encoding="utf-8"?>
<!-- Generator: Adobe Illustrator 22.0.0, SVG Export Plug-In . SVG Version: 6.00 Build 0)  -->
<svg version="1.1" id="Layer_1" xmlns="http://www.w3.org/2000/svg" xmlns:xlink="http://www.w3.org/1999/xlink" x="0px" y="0px"
	 viewBox="0 0 1500 900" style="enable-background:new 0 0 1500 900;" xml:space="preserve">
<style type="text/css">
	.st0{fill:#FFFFFF;}
</style>
<g>
	<g>
		<g>
			<path class="st0" d="M499.9,542.7c-17.9,0-32.8-2.6-44.8-7.8c-12-5.2-21.1-12-27.2-20.4s-9.4-17.3-9.8-26.8c0-1.5,0.6-2.8,1.7-4
				c1.1-1.2,2.5-1.8,4.2-1.8h29.9c2.4,0,4.3,0.5,5.6,1.5c1.3,1,2.5,2.3,3.6,3.8c1.3,3.2,3.4,6.2,6.3,9.2c2.9,3,6.8,5.4,11.9,7.4
				c5,2,11.3,2.9,18.7,2.9c12.1,0,21.2-2,27.2-5.9s9.1-9.2,9.1-15.9c0-4.8-1.6-8.7-4.9-11.7c-3.3-3-8.4-5.7-15.4-8.1
				c-7-2.4-16.2-5-27.8-7.8c-14-3-25.8-6.8-35.6-11.6c-9.8-4.7-17.1-10.9-22.1-18.4c-4.9-7.5-7.4-16.9-7.4-28.1
				c0-11.2,3.1-21.1,9.2-29.7c6.1-8.7,14.8-15.4,26-20.4c11.2-4.9,24.5-7.4,39.9-7.4c12.5,0,23.5,1.7,33.1,5
				c9.6,3.4,17.6,7.7,24,13.1c6.4,5.4,11.3,11.2,14.7,17.3c3.4,6.1,5.1,12.1,5.3,17.9c0,1.5-0.6,2.8-1.7,4c-1.1,1.2-2.5,1.8-4.2,1.8
				h-31.3c-1.9,0-3.5-0.4-5-1.1c-1.5-0.7-2.7-2-3.6-3.9c-1.1-4.8-4.4-9.1-9.9-12.7c-5.5-3.6-12.6-5.4-21.4-5.4
				c-9.1,0-16.3,1.7-21.6,5c-5.3,3.4-8,8.5-8,15.4c0,4.5,1.3,8.2,4,11.3c2.7,3.1,7.3,5.8,13.7,8.1c6.4,2.3,14.9,4.9,25.6,7.7
				c16.4,3.4,29.7,7.4,39.9,12c10.2,4.7,17.8,10.7,22.6,18c4.8,7.4,7.3,16.6,7.3,27.8c0,12.5-3.5,23.2-10.5,32.1
				c-7,8.9-16.6,15.8-28.8,20.5C530.3,540.4,516.1,542.7,499.9,542.7z"/>
			<path class="st0" d="M623,593c-1.5,0-2.8-0.6-4-1.7c-1.2-1.1-1.8-2.5-1.8-4.2c0-0.4,0.1-0.9,0.3-1.5c0.2-0.7,0.5-1.4,0.8-2.4
				l21.8-52.2l-53.6-126.5c-0.6-1.5-0.8-2.7-0.8-3.6c0.2-1.7,0.8-3.1,2-4.3c1.1-1.2,2.5-1.8,4.2-1.8h27.1c2.4,0,4.2,0.6,5.3,1.8
				c1.1,1.2,2,2.5,2.5,3.8l34.6,86.6l35.5-86.6c0.7-1.5,1.7-2.8,2.8-3.9c1.1-1.1,2.9-1.7,5.3-1.7h26.5c1.7,0,3.1,0.6,4.3,1.8
				c1.2,1.2,1.8,2.6,1.8,4c0,0.9-0.4,2.2-1.1,3.9l-79,182.9c-0.6,1.5-1.4,2.8-2.7,3.9c-1.2,1.1-3,1.7-5.4,1.7H623z"/>
			<path class="st0" d="M755.4,539.9c-1.9,0-3.4-0.7-4.7-2c-1.3-1.3-2-3-2-5V401.7c0-2,0.7-3.7,2-5c1.3-1.3,2.9-2,4.7-2h27.4
				c2,0,3.7,0.7,5,2c1.3,1.3,2,3,2,5v10.9c4.8-6,11.1-10.9,18.7-14.8c7.6-3.9,16.9-5.9,27.9-5.9c11,0,20.6,2.5,28.9,7.4
				c8.3,4.9,14.8,12.1,19.5,21.5c4.7,9.4,7.1,20.8,7.1,34.2V533c0,2.1-0.7,3.7-2.1,5c-1.4,1.3-3,2-4.9,2h-29.6c-2.1,0-3.7-0.7-5-2
				c-1.3-1.3-2-3-2-5v-76.2c0-9.9-2.4-17.5-7.1-23c-4.7-5.5-11.7-8.2-20.8-8.2c-8.8,0-15.7,2.8-20.9,8.2c-5.2,5.5-7.8,13.2-7.8,23
				V533c0,2.1-0.7,3.7-2,5c-1.3,1.3-2.9,2-4.7,2H755.4z"/>
			<path class="st0" d="M978.8,542.7c-13.6,0-25.6-2.5-35.9-7.5c-10.3-5-18.5-12.3-24.4-21.9c-6-9.6-9.2-21.1-9.8-34.5
				c-0.2-3-0.3-6.7-0.3-11.3c0-4.6,0.1-8.3,0.3-11.3c0.6-13.6,3.8-25.2,9.6-34.8c5.9-9.6,14-16.9,24.4-21.9c10.4-5,22.4-7.5,36-7.5
				c12.5,0,23.1,1.7,31.8,5.2c8.7,3.4,15.9,7.8,21.5,13c5.6,5.2,9.7,10.7,12.4,16.3c2.7,5.7,4.1,10.7,4.3,14.9
				c0.2,1.9-0.4,3.5-1.8,4.9c-1.4,1.4-3,2.1-4.9,2.1h-29.9c-1.9,0-3.3-0.5-4.3-1.5c-1-1-2-2.5-2.9-4.3c-2.6-6.5-6-11.2-10.1-14
				c-4.1-2.8-9.2-4.2-15.4-4.2c-8.4,0-15,2.7-19.8,8.1c-4.8,5.4-7.4,13.8-7.8,25.1c-0.2,7.3-0.2,13.9,0,19.8
				c0.6,11.5,3.2,19.9,8,25.1c4.7,5.2,11.3,7.8,19.7,7.8c6.5,0,11.7-1.4,15.6-4.2c3.9-2.8,7.2-7.4,9.8-14c0.7-1.9,1.7-3.3,2.8-4.3
				c1.1-1,2.6-1.5,4.5-1.5h29.9c1.9,0,3.5,0.7,4.9,2.1c1.4,1.4,2,3,1.8,4.9c-0.2,3.2-1.1,6.9-2.7,11.2c-1.6,4.3-4.1,8.7-7.5,13.1
				c-3.4,4.5-7.9,8.6-13.3,12.4c-5.4,3.8-12,6.9-19.7,9.2C998,541.6,989,542.7,978.8,542.7z"/>
			<path class="st0" d="M1072,539.9c-2.1,0-3.7-0.7-5-2c-1.3-1.3-2-3-2-5V348.7c0-2,0.7-3.7,2-5c1.3-1.3,3-2,5-2h27.4
				c1.9,0,3.4,0.7,4.7,2c1.3,1.3,2,3,2,5V443l43-43.6c1.5-1.3,2.8-2.4,4-3.4c1.2-0.9,3.1-1.4,5.7-1.4h31.6c1.9,0,3.4,0.6,4.5,1.8
				c1.1,1.2,1.7,2.7,1.7,4.3c0,0.7-0.2,1.6-0.6,2.5c-0.4,0.9-1,1.7-2,2.2l-53.9,54.2l60.9,69.5c1.7,1.5,2.5,3,2.5,4.5
				c0,1.7-0.6,3.1-1.8,4.3c-1.2,1.2-2.7,1.8-4.3,1.8H1165c-2.8,0-4.8-0.5-6-1.4c-1.2-0.9-2.6-2-4-3.4l-48.9-54.7V533
				c0,2.1-0.7,3.7-2,5c-1.3,1.3-2.9,2-4.7,2H1072z"/>
		</g>
	</g>
	<g>
		<g>
			<path class="st0" d="M1221.1,540.4c-1.8,0-3.3-0.6-4.4-1.7c-1.1-1.1-1.7-2.6-1.7-4.4V374.8c0-1.8,0.6-3.3,1.7-4.4
				c1.1-1.1,2.6-1.7,4.4-1.7h27.7c1.8,0,3.3,0.6,4.4,1.7c1.1,1.1,1.7,2.6,1.7,4.4v159.5c0,1.8-0.6,3.3-1.7,4.4
				c-1.1,1.1-2.6,1.7-4.4,1.7H1221.1z"/>
			<path class="st0" d="M1271.4,540.4c-1.5,0-2.7-0.5-3.7-1.6c-1-1.1-1.5-2.2-1.5-3.6c0-0.8,0.1-1.6,0.2-2.2l58.4-157.8
				c0.5-1.8,1.5-3.4,2.9-4.7c1.5-1.3,3.5-2,6.1-2h31.4c2.6,0,4.7,0.7,6.1,2c1.5,1.3,2.5,2.9,2.9,4.7l58.4,157.8
				c0.2,0.7,0.2,1.4,0.2,2.2c0,1.3-0.5,2.5-1.5,3.6c-1,1.1-2.2,1.6-3.7,1.6h-25.5c-2.5,0-4.3-0.6-5.4-1.7c-1.1-1.1-1.9-2.2-2.2-3.2
				l-10.6-27.5h-69.2l-10.6,27.5c-0.3,1-1.1,2-2.2,3.2c-1.1,1.1-2.9,1.7-5.4,1.7H1271.4z M1324.2,476.4h50.8l-25.3-70.7
				L1324.2,476.4z"/>
		</g>
	</g>
	<g>
		<circle class="st0" cx="227" cy="462.3" r="46.1"/>
		<path class="st0" d="M366.5,473.4c-0.2-0.2-4.6-4.8-10.7-12.7c8.3-11.7,19.2-21.7,25.7-34.6c4.3-8.4,6.6-18.1,4.4-27.2
			c-5.4-22.1-31.5-27.9-51.1-27.9c0,0-2.4,0-6.5-0.3c0.8,5.7,1.8,10.8,2.8,14.5c2.2,0.1,3.4,0.1,3.6,0.1
			c13.3,0.1,36.1,1.9,37.6,19.2c0.4,4.8-0.9,9.6-2.9,13.9c-2.7,5.7-6.6,10.8-10.7,15.7c-1,1.1-12.1,13.8-11.9,14
			c-3.9-4.4-6.5-9.9-9.2-15c-2.9-5.5-5.6-11.2-8-16.9c-4.8-11.5-8.6-23.5-11.3-35.7c-1.7-7.9-3-15.9-3.8-23.9
			c-0.8-7.9-1.3-15.9-3.2-23.6c-1.9-7.8-5.3-15.3-10.8-21.1c-17.2-18.2-41.8-6.7-57.4,7.3c-1.5,1.4-3,2.8-4.4,4.2
			c-3.6,3.6-7.7,6.7-11.6,9.9c-0.4,0.3-0.8,0.6-1.2,0.5c-0.2,0-0.5-0.2-0.7-0.3c-6.8-5-13.1-10.7-19.7-16
			c-6.6-5.3-13.7-10.1-21.8-12.8c-8-2.7-17-3.1-24.8,0.3c-9.9,4.4-16.4,14.4-19.4,24.9c-2,7-2.7,14.3-3,21.5
			c-0.1,1.6-0.2,20-1.5,20.2c-10.5,1.6-17.6,2.1-17.7,2.1c-25.5,1.5-42.7,10.6-48.6,25.7c-5.8,15.1,0.8,33.5,18.7,51.7
			c0,0,4.1,4.2,9.8,11.6c0.7,0.9-10.2,13.1-11.8,14.9c-6.2,7.2-12.1,14.9-15.6,23.9c-3.4,8.5-4.4,18.2-1.3,26.8
			c2.5,6.9,7.6,12.8,13.8,16.7c8.9,5.5,19.7,7.1,30.1,8.1c18.2,1.8,36,3.2,53.8,8.2c17.4,4.9,34.1,12.2,49.5,21.6
			c-6.3,5.1-9.9,8.6-10.1,8.8c-13.7,13.5-26.9,19.2-36,15.6c-9.2-3.6-14.9-16.7-15.7-36c0,0,0-0.1,0-0.2c-5-1.1-10-2-14.5-2.7
			c0.2,2.2,0.3,3.5,0.3,3.5c1,25.5,9.8,42.8,24.7,48.7c3.5,1.4,7.3,2.1,11.1,2.1c12.4,0,26.3-7.1,40.2-20.7
			c0.1-0.1,4.7-4.5,12.7-10.7c9.2,6.6,14.7,11.5,14.7,11.5c13.9,12.8,27.6,19.5,39.8,19.5c4.3,0,8.3-0.8,12.1-2.5
			c14.7-6.4,22.9-23.9,23.1-49.5c0-0.1,0.1-7.4,1.7-18.7c10-1.7,16.5-1.9,16.5-1.9c25.5-1,42.8-9.8,48.7-24.7
			C391.1,509.8,384.4,491.6,366.5,473.4z M248.8,333.4c9.4-9.4,28.8-25.2,41.4-11.9c2.7,2.9,4.5,6.5,5.9,10.3
			c2,5.8,3.1,11.8,3.7,17.9c0.3,3,0.5,6,0.6,9c0,0.7,0.2,8,0.9,8.1c-22.1-4.6-43.2-12.9-62.5-24.6
			C245.1,337.1,248.6,333.6,248.8,333.4z M150.9,354.4c0-19.3,5.1-32.5,14-36.4c1.9-0.8,4.1-1.3,6.4-1.3c8.3,0,18.8,5.4,29.9,15.7
			c0.2,0.2,4.8,4.4,12.6,10.2c-8.9,5.7-18.1,10.7-27.6,14.8c-10.6,4.6-23,8.5-36.3,11.4C150.9,360.1,150.9,354.7,150.9,354.4z
			 M119.3,539.1c-19.3-0.2-32.7-5.6-36.8-14.8c-4.1-9.3,0.9-22.8,13.8-37.2c0.2-0.2,4.2-4.8,9.9-12.3c7,10.4,12.9,21.2,17.7,32.2
			c4.6,10.5,8.3,21.7,11,33.4C125.6,539.2,119.7,539.1,119.3,539.1z M304,569.9c-0.2,19.3-5.4,32.6-14.5,36.5
			c-9.1,3.9-22.4-1.3-36.5-14.4c-0.2-0.2-4.6-4.2-12.1-9.8c10-6.6,20.4-12.3,30.9-16.9c10.5-4.6,21.7-8.3,33.4-11
			C304,563.7,304,569.6,304,569.9z M371.8,519.4c-2.8,7.4-10.9,11.2-18.5,13.1c-11.8,3-24.1,3.3-36.1,4.9
			c-25.6,3.5-50.4,13.1-72.8,25.8c-5.1,2.9-10.1,7.9-15.5,10.1c-0.1,0.1-0.4,0.3-0.6,0.2c-12.2-7.9-24.8-14.4-37.5-19.4
			c-12.7-5-26.4-8.8-40.6-11.5c-3.1-14.5-7.4-28.4-13-41.4c-5.8-13.4-13.2-26.4-22-38.9c9.2-13.8,16.5-27.4,21.7-40.4
			c3.3-8.2,5.9-16.8,8.1-25.7c-6.2,1.2-11.3,2-15.4,2.5c-1.7,6.1-3.7,12.1-6,17.9c-4.3,10.8-10.2,22.1-17.6,33.6
			c-4.7-5.8-7.9-9-8.1-9.2c-8.6-8.7-20.8-23.5-15.4-36.7c2.3-5.7,7.8-9.5,13.5-11.9c10-4.1,21.1-4.4,31.8-5.5
			c25.5-2.6,50.7-9.7,73.9-20.8c4.3-2,8.4-4.4,12.5-6.8c1.3-0.8,11.8-8.3,12.4-7.9c20.9,13.4,43.9,23.1,68.2,28.6
			c3.1,0.7,6.3,1.4,9.5,1.9c5.2,24.4,14.4,47.8,27.5,69c2.2,3.5,4.4,6.9,6.8,10.2c-7.9,12.2-14.4,24.8-19.4,37.5
			c-3.4,8.5-6.1,17.4-8.4,26.6c4.8-0.9,10-1.7,15.3-2.2c1.8-6.6,3.9-13,6.4-19.1c4.1-10.3,9.2-20.5,15.3-30.5
			c1.6,1.5,11.7,13.3,13.2,15c5,5.7,9.6,12.1,11.4,19.6C373,511.7,373.2,515.8,371.8,519.4z"/>
	</g>
</g>
</svg>
